<svg xmlns="http://www.w3.org/2000/svg" width="49" height="48" fill="none">
  <g fill="#022C40" clip-path="url(#a)">
    <path d="m27.236 41.01-4.765-4.59-4.439-4.26 5.92-.87 6.658-.96.858-1.71h-.059c-.68 0-1.338-.236-1.865-.67a3.007 3.007 0 0 1-1.032-1.712c-.003-1.851 2.364-1.251 4.229-4.371.237-.06 8.346-21.87-8.227-21.87s-8.465 21.81-8.465 21.81c1.865 3 4.262 2.55 4.233 4.35-.03 1.8-2.19 2.4-4.233 2.61-3.373.39-6.333-.39-9.292 5.28-1.776 3.27-2.516 13.95-2.516 13.95h21.782v-.51l1.213-6.477ZM35.523 48h1.657l-.829-.42-.828.42Z"/>
    <path d="m36.351 44.19 7.31 3.81-1.39-8.07 5.918-5.7-8.168-1.17-3.67-7.35-3.67 7.35-8.167 1.17 5.918 5.7-1.39 8.07 7.31-3.81Z"/>
  </g>
  <defs>
    <clipPath id="a">
      <path fill="#fff" d="M.838 0h47.35v48H.839z"/>
    </clipPath>
  </defs>
</svg>
